<?xml version="1.0" encoding="UTF-8" standalone="no"?>
<!-- Created with Inkscape (http://www.inkscape.org/) -->

<svg
   version="1.0"
   width="79.5"
   height="101.49999"
   id="svg3169"
   sodipodi:docname="PKP-Osp2-small.svg"
   xml:space="preserve"
   xmlns:inkscape="http://www.inkscape.org/namespaces/inkscape"
   xmlns:sodipodi="http://sodipodi.sourceforge.net/DTD/sodipodi-0.dtd"
   xmlns:xlink="http://www.w3.org/1999/xlink"
   xmlns="http://www.w3.org/2000/svg"
   xmlns:svg="http://www.w3.org/2000/svg"><sodipodi:namedview
     id="namedview41"
     pagecolor="#505050"
     bordercolor="#eeeeee"
     borderopacity="1"
     inkscape:showpageshadow="0"
     inkscape:pageopacity="0"
     inkscape:pagecheckerboard="0"
     inkscape:deskcolor="#505050"
     showgrid="false" /><defs
     id="defs3171"><linearGradient
       id="linearGradient3538"><stop
         style="stop-color:#ffffff;stop-opacity:1"
         offset="0"
         id="stop3540" /><stop
         style="stop-color:#ffdf91;stop-opacity:1"
         offset="1"
         id="stop3542" /></linearGradient><linearGradient
       id="linearGradient3266"><stop
         style="stop-color:#2c2c2c;stop-opacity:1"
         offset="0"
         id="stop3268" /><stop
         style="stop-color:#000000;stop-opacity:1"
         offset="1"
         id="stop3270" /></linearGradient><linearGradient
       id="linearGradient3203"><stop
         style="stop-color:#000000;stop-opacity:1"
         offset="0"
         id="stop3205" /><stop
         style="stop-color:#000000;stop-opacity:0"
         offset="1"
         id="stop3207" /></linearGradient><linearGradient
       x1="8"
       y1="20"
       x2="8"
       y2="40"
       id="linearGradient3254"
       xlink:href="#linearGradient3203"
       gradientUnits="userSpaceOnUse"
       gradientTransform="matrix(0.7954951,-0.7954951,0.7071068,0.7071068,3.5402502,14.424404)" /><radialGradient
       cx="111.07143"
       cy="70.219322"
       r="13.928572"
       fx="111.07143"
       fy="70.219322"
       id="radialGradient3272"
       xlink:href="#linearGradient3266"
       gradientUnits="userSpaceOnUse" /><radialGradient
       cx="111.07143"
       cy="70.219322"
       r="13.928572"
       fx="111.07143"
       fy="70.219322"
       id="radialGradient3190"
       xlink:href="#linearGradient3538"
       gradientUnits="userSpaceOnUse" /><linearGradient
       x1="8"
       y1="20"
       x2="8"
       y2="40"
       id="linearGradient5039"
       xlink:href="#linearGradient3203"
       gradientUnits="userSpaceOnUse"
       gradientTransform="matrix(0.7954951,-0.7954951,0.7071068,0.7071068,3.5402502,14.424404)" /><radialGradient
       cx="111.07143"
       cy="70.219322"
       r="13.928572"
       fx="111.07143"
       fy="70.219322"
       id="radialGradient5067"
       xlink:href="#linearGradient3266"
       gradientUnits="userSpaceOnUse" /><linearGradient
       x1="8"
       y1="20"
       x2="8"
       y2="40"
       id="linearGradient5069"
       xlink:href="#linearGradient3203"
       gradientUnits="userSpaceOnUse"
       gradientTransform="matrix(0.7954951,-0.7954951,0.7071068,0.7071068,3.5402502,14.424404)" /><linearGradient
       x1="8"
       y1="20"
       x2="8"
       y2="40"
       id="linearGradient5442"
       xlink:href="#linearGradient3203"
       gradientUnits="userSpaceOnUse"
       gradientTransform="matrix(0.7954951,-0.7954951,0.7071068,0.7071068,3.5402502,14.424404)" /><radialGradient
       cx="111.07143"
       cy="70.219322"
       r="13.928572"
       fx="111.07143"
       fy="70.219322"
       id="radialGradient7454"
       xlink:href="#linearGradient3538"
       gradientUnits="userSpaceOnUse" /><linearGradient
       id="b"><stop
         offset="0"
         stop-color="#fff027"
         id="stop278" /><stop
         offset="1"
         stop-color="#ff8e00"
         id="stop280" /></linearGradient><radialGradient
       xlink:href="#b"
       id="f"
       cx="111.07143"
       cy="70.219322"
       r="13.928572"
       fx="111.07143"
       fy="70.219322"
       gradientUnits="userSpaceOnUse"
       gradientTransform="matrix(0.57436,0,0,0.57436,-83.563609,81.151039)" /><radialGradient
       xlink:href="#b"
       id="j"
       cx="111.07143"
       cy="70.219322"
       r="13.928572"
       fx="111.07143"
       fy="70.219322"
       gradientUnits="userSpaceOnUse"
       gradientTransform="matrix(0.57436,0,0,0.57436,-49.563609,81.151037)" /></defs><g
     transform="translate(-2.25,-1.2483814)"
     id="layer1"><g
       id="g5763"><path
         d="M 25,1.4983814 C 12.58,1.4983814 2.5,11.57838 2.5,23.99838 v 56 c 0,12.252285 9.808523,22.49999 22,22.49999 H 59 c 12.42,0 22.5,-10.079991 22.5,-22.49999 0,-4.178627 -1.137771,-8.083387 -3.125,-11.4375 l -34,-56 C 40.455652,5.9456723 33.241372,1.4983814 25,1.4983814 Z"
         style="color:#000000;display:inline;overflow:visible;visibility:visible;fill:#ffffff;fill-opacity:1;fill-rule:nonzero;stroke:#000000;stroke-width:0.5;stroke-linecap:butt;stroke-linejoin:miter;stroke-miterlimit:4;stroke-dasharray:none;stroke-dashoffset:0;stroke-opacity:1;marker:none;marker-start:none;marker-mid:none;marker-end:none;enable-background:accumulate"
         id="path5656" /><path
         d="M 25,4 C 13.96,4 5,12.959999 5,24 v 56 c 0,9.788886 7.051216,17.933942 16.34375,19.65625 0.583635,0.10817 1.181065,0.19376 1.78125,0.25 C 23.746167,99.96446 24.363696,100 25,100 H 59 C 70.04,100 79,91.04 79,80 79,76.519397 78.096836,73.257766 76.53125,70.40625 76.195217,69.79421 75.833593,69.195995 75.4375,68.625 64.483569,50.549544 53.506731,32.487091 42.5625,14.40625 39.164526,8.205388 32.565157,3.999999 25,4 Z"
         style="fill:#333333;fill-opacity:1;fill-rule:evenodd;stroke:none;stroke-width:1px;stroke-linecap:butt;stroke-linejoin:miter;stroke-opacity:1"
         id="path6421" /></g><g
       transform="translate(0,55)"
       id="g3250"><path
         d="m 25,14 c -2.484,0 -5.734,0.008 -7.363,1.637 C 16.008,17.266 16,20.516 16,23 l 1,2 c 0,-4.416 3.583999,-8 8,-8 4.416001,0 8,3.584 8,8 l 1,-2 C 34,20.516 33.992,17.266 32.363,15.637 30.734,14.008 27.484,14 25,14 Z"
         style="color:#000000;display:inline;overflow:visible;visibility:visible;opacity:1;fill:#000000;fill-opacity:1;fill-rule:nonzero;stroke:none;stroke-width:2;stroke-linecap:butt;stroke-linejoin:round;stroke-miterlimit:4;stroke-dasharray:none;stroke-dashoffset:0;stroke-opacity:1;marker:none;marker-start:none;marker-mid:none;marker-end:none;enable-background:accumulate"
         id="path3185" /><path
         d="M 30.410307,15.838617 44.552443,29.980753 35.188482,38.344714 27.753453,38.637607 17.682385,28.566539 Z"
         style="color:#000000;display:inline;overflow:visible;visibility:visible;fill:url(#linearGradient3254);fill-opacity:1;fill-rule:nonzero;stroke:none;stroke-width:2;stroke-linecap:butt;stroke-linejoin:round;stroke-miterlimit:4;stroke-dashoffset:0;stroke-opacity:1;marker:none;marker-start:none;marker-mid:none;marker-end:none;enable-background:accumulate"
         id="rect3192" /></g><path
       d="m 125,70.219322 c 0,7.692538 -6.23603,13.928573 -13.92857,13.928573 -7.69254,0 -13.928575,-6.236035 -13.928575,-13.928573 0,-7.692538 6.236035,-13.928572 13.928575,-13.928572 7.69254,0 13.92857,6.236034 13.92857,13.928572 z"
       transform="matrix(0.574359,0,0,0.574359,-38.794873,39.668903)"
       style="color:#000000;display:inline;overflow:visible;visibility:visible;opacity:1;fill:url(#radialGradient3272);fill-opacity:1;fill-rule:nonzero;stroke:none;stroke-width:1;stroke-linecap:butt;stroke-linejoin:miter;stroke-miterlimit:4;stroke-dasharray:none;stroke-dashoffset:0;stroke-opacity:1;marker:none;marker-start:none;marker-mid:none;marker-end:none;enable-background:accumulate"
       id="path3140" /><g
       transform="translate(0,27)"
       id="g5031"><path
         d="m 25,14 c -2.484,0 -5.734,0.008 -7.363,1.637 C 16.008,17.266 16,20.516 16,23 l 1,2 c 0,-4.416 3.583999,-8 8,-8 4.416001,0 8,3.584 8,8 l 1,-2 C 34,20.516 33.992,17.266 32.363,15.637 30.734,14.008 27.484,14 25,14 Z"
         style="color:#000000;display:inline;overflow:visible;visibility:visible;opacity:1;fill:#000000;fill-opacity:1;fill-rule:nonzero;stroke:none;stroke-width:2;stroke-linecap:butt;stroke-linejoin:round;stroke-miterlimit:4;stroke-dasharray:none;stroke-dashoffset:0;stroke-opacity:1;marker:none;marker-start:none;marker-mid:none;marker-end:none;enable-background:accumulate"
         id="path5033" /><path
         d="M 30.410307,15.838617 44.552443,29.980753 35.188482,38.344714 27.753453,38.637607 17.682385,28.566539 Z"
         style="color:#000000;display:inline;overflow:visible;visibility:visible;fill:url(#linearGradient5039);fill-opacity:1;fill-rule:nonzero;stroke:none;stroke-width:2;stroke-linecap:butt;stroke-linejoin:round;stroke-miterlimit:4;stroke-dashoffset:0;stroke-opacity:1;marker:none;marker-start:none;marker-mid:none;marker-end:none;enable-background:accumulate"
         id="path5035" /></g><path
       d="m 125,70.219322 c 0,7.692538 -6.23603,13.928573 -13.92857,13.928573 -7.69254,0 -13.928575,-6.236035 -13.928575,-13.928573 0,-7.692538 6.236035,-13.928572 13.928575,-13.928572 7.69254,0 13.92857,6.236034 13.92857,13.928572 z"
       transform="matrix(0.574359,0,0,0.574359,-38.794873,11.668902)"
       style="color:#000000;display:inline;overflow:visible;visibility:visible;fill:url(#radialGradient3190);fill-opacity:1;fill-rule:nonzero;stroke:none;stroke-width:1;stroke-linecap:butt;stroke-linejoin:miter;stroke-miterlimit:4;stroke-dasharray:none;stroke-dashoffset:0;stroke-opacity:1;marker:none;marker-start:none;marker-mid:none;marker-end:none;enable-background:accumulate"
       id="path5037" /><g
       transform="translate(34,55.000393)"
       id="g5045"><path
         d="m 25,14 c -2.484,0 -5.734,0.008 -7.363,1.637 C 16.008,17.266 16,20.516 16,23 l 1,2 c 0,-4.416 3.583999,-8 8,-8 4.416001,0 8,3.584 8,8 l 1,-2 C 34,20.516 33.992,17.266 32.363,15.637 30.734,14.008 27.484,14 25,14 Z"
         style="color:#000000;display:inline;overflow:visible;visibility:visible;opacity:1;fill:#000000;fill-opacity:1;fill-rule:nonzero;stroke:none;stroke-width:2;stroke-linecap:butt;stroke-linejoin:round;stroke-miterlimit:4;stroke-dasharray:none;stroke-dashoffset:0;stroke-opacity:1;marker:none;marker-start:none;marker-mid:none;marker-end:none;enable-background:accumulate"
         id="path5047" /><path
         d="M 30.410307,15.838617 44.552443,29.980753 35.188482,38.344714 27.753453,38.637607 17.682385,28.566539 Z"
         style="color:#000000;display:inline;overflow:visible;visibility:visible;fill:url(#linearGradient5069);fill-opacity:1;fill-rule:nonzero;stroke:none;stroke-width:2;stroke-linecap:butt;stroke-linejoin:round;stroke-miterlimit:4;stroke-dashoffset:0;stroke-opacity:1;marker:none;marker-start:none;marker-mid:none;marker-end:none;enable-background:accumulate"
         id="path5049" /></g><path
       d="m 125,70.219322 c 0,7.692538 -6.23603,13.928573 -13.92857,13.928573 -7.69254,0 -13.928575,-6.236035 -13.928575,-13.928573 0,-7.692538 6.236035,-13.928572 13.928575,-13.928572 7.69254,0 13.92857,6.236034 13.92857,13.928572 z"
       transform="matrix(0.574359,0,0,0.574359,-4.794873,39.6689)"
       style="color:#000000;display:inline;overflow:visible;visibility:visible;fill:url(#radialGradient5067);fill-opacity:1;fill-rule:nonzero;stroke:none;stroke-width:1;stroke-linecap:butt;stroke-linejoin:miter;stroke-miterlimit:4;stroke-dasharray:none;stroke-dashoffset:0;stroke-opacity:1;marker:none;marker-start:none;marker-mid:none;marker-end:none;enable-background:accumulate"
       id="path5051" /><g
       transform="translate(0,-1)"
       id="g5434"><path
         d="m 25,14 c -2.484,0 -5.734,0.008 -7.363,1.637 C 16.008,17.266 16,20.516 16,23 l 1,2 c 0,-4.416 3.583999,-8 8,-8 4.416001,0 8,3.584 8,8 l 1,-2 C 34,20.516 33.992,17.266 32.363,15.637 30.734,14.008 27.484,14 25,14 Z"
         style="color:#000000;display:inline;overflow:visible;visibility:visible;opacity:1;fill:#000000;fill-opacity:1;fill-rule:nonzero;stroke:none;stroke-width:2;stroke-linecap:butt;stroke-linejoin:round;stroke-miterlimit:4;stroke-dasharray:none;stroke-dashoffset:0;stroke-opacity:1;marker:none;marker-start:none;marker-mid:none;marker-end:none;enable-background:accumulate"
         id="path5436" /><path
         d="M 30.410307,15.838617 44.552443,29.980753 35.188482,38.344714 27.753453,38.637607 17.682385,28.566539 Z"
         style="color:#000000;display:inline;overflow:visible;visibility:visible;fill:url(#linearGradient5442);fill-opacity:1;fill-rule:nonzero;stroke:none;stroke-width:2;stroke-linecap:butt;stroke-linejoin:round;stroke-miterlimit:4;stroke-dashoffset:0;stroke-opacity:1;marker:none;marker-start:none;marker-mid:none;marker-end:none;enable-background:accumulate"
         id="path5438" /></g><path
       d="m 125,70.219322 c 0,7.692538 -6.23603,13.928573 -13.92857,13.928573 -7.69254,0 -13.928575,-6.236035 -13.928575,-13.928573 0,-7.692538 6.236035,-13.928572 13.928575,-13.928572 7.69254,0 13.92857,6.236034 13.92857,13.928572 z"
       transform="matrix(0.574359,0,0,0.574359,-38.794869,-16.331098)"
       style="color:#000000;display:inline;overflow:visible;visibility:visible;fill:url(#radialGradient7454);fill-opacity:1;fill-rule:nonzero;stroke:none;stroke-width:1;stroke-linecap:butt;stroke-linejoin:miter;stroke-miterlimit:4;stroke-dasharray:none;stroke-dashoffset:0;stroke-opacity:1;marker:none;marker-start:none;marker-mid:none;marker-end:none;enable-background:accumulate"
       id="path5440" /></g><g
     transform="translate(42.518625,-42.730589)"
     id="g334"><path
       fill="url(#f)"
       d="m -11.768609,121.48222 c 0,4.41829 -3.581726,8.00001 -8.000014,8.00001 -4.418287,0 -8.000016,-3.58172 -8.000016,-8.00001 0,-4.41829 3.581729,-8.00002 8.000016,-8.00002 4.418288,0 8.000014,3.58173 8.000014,8.00002 z"
       color="#000000"
       overflow="visible"
       style="fill:url(#f);stroke-width:0.57436;marker:none"
       id="path308" /><path
       fill="url(#j)"
       d="m 22.231391,121.48221 c 0,4.41828 -3.581726,8.00001 -8.000014,8.00001 -4.4182868,0 -8.0000159,-3.58173 -8.0000159,-8.00001 0,-4.41829 3.5817291,-8.00002 8.0000159,-8.00002 4.418288,0 8.000014,3.58173 8.000014,8.00002 z"
       color="#000000"
       overflow="visible"
       style="fill:url(#j);stroke-width:0.57436;marker:none"
       id="path324" /></g></svg>
