<?xml version="1.0" encoding="UTF-8" standalone="no"?>
<!-- Created with Inkscape (http://www.inkscape.org/) -->

<svg
   version="1.0"
   width="61.414215"
   height="90.707108"
   id="svg2435"
   sodipodi:docname="PKP_M.svg"
   xmlns:inkscape="http://www.inkscape.org/namespaces/inkscape"
   xmlns:sodipodi="http://sodipodi.sourceforge.net/DTD/sodipodi-0.dtd"
   xmlns="http://www.w3.org/2000/svg"
   xmlns:svg="http://www.w3.org/2000/svg">
  <sodipodi:namedview
     id="namedview23"
     pagecolor="#505050"
     bordercolor="#eeeeee"
     borderopacity="1"
     inkscape:showpageshadow="0"
     inkscape:pageopacity="0"
     inkscape:pagecheckerboard="0"
     inkscape:deskcolor="#505050"
     showgrid="false" />
  <defs
     id="defs2437" />
  <g
     id="layer1"
     transform="translate(-4.2928931,-4.2928931)">
    <g
       transform="translate(-15,-5)"
       id="g2370">
      <rect
         width="6"
         height="34"
         x="47"
         y="65"
         style="fill:#c0c0c0;fill-opacity:1;stroke:none;stroke-width:1.06458;stroke-linecap:square;stroke-linejoin:miter;stroke-miterlimit:4;stroke-dasharray:none;stroke-opacity:1"
         id="rect2169" />
      <g
         transform="translate(10)"
         id="g2182">
        <path
           d="M 40,10 10,40 40,70 70,40 Z"
           style="fill:#ffffff;fill-rule:evenodd;stroke:#000000;stroke-width:1px;stroke-linecap:butt;stroke-linejoin:miter;stroke-opacity:1"
           id="path2159" />
        <path
           d="M 40,17 63,40 40,63 17,40 Z"
           style="fill:#4169e1;fill-rule:evenodd;stroke:none;stroke-width:1px;stroke-linecap:butt;stroke-linejoin:miter;stroke-opacity:1"
           id="path2161" />
      </g>
      <rect
         width="14"
         height="1"
         x="43"
         y="99"
         style="fill:#000000;fill-opacity:1;stroke:none;stroke-width:2;stroke-linecap:square;stroke-linejoin:miter;stroke-miterlimit:4;stroke-dasharray:none;stroke-opacity:1"
         id="rect2167" />
      <g
         transform="translate(-6,-8)"
         id="g2177">
        <path
           d="m 63,84 c 0,0 0,-6 6,-6 6,0 6,6 6,6 v 10 c 0,0 0,6 -6,6 -6,0 -6,-5 -6,-5 z"
           style="fill:#c0c0c0;fill-rule:evenodd;stroke:none;stroke-width:1px;stroke-linecap:butt;stroke-linejoin:miter;stroke-opacity:1"
           id="path2175" />
        <path
           d="m 73,84 a 4,4 0 1 1 -8,0 4,4 0 1 1 8,0 z"
           style="opacity:1;fill:#404040;fill-opacity:1;stroke:none;stroke-width:2;stroke-linecap:square;stroke-linejoin:miter;stroke-miterlimit:4;stroke-dasharray:none;stroke-opacity:1"
           id="path2171" />
        <path
           d="m 73,84 a 4,4 0 1 1 -8,0 4,4 0 1 1 8,0 z"
           transform="translate(0,10)"
           style="opacity:1;fill:#404040;fill-opacity:1;stroke:none;stroke-width:2;stroke-linecap:square;stroke-linejoin:miter;stroke-miterlimit:4;stroke-dasharray:none;stroke-opacity:1"
           id="path2173" />
      </g>
      <path
         d="m 67,76 a 4,4 0 1 1 -8,0 4,4 0 1 1 8,0 z"
         style="fill:#4141ff;fill-opacity:1;stroke:none;stroke-width:2;stroke-linecap:square;stroke-linejoin:miter;stroke-miterlimit:4;stroke-dasharray:none;stroke-opacity:1"
         id="path2200" />
    </g>
  </g>
</svg>
