<?xml version="1.0" encoding="UTF-8" standalone="no"?>
<!-- Created with Inkscape (http://www.inkscape.org/) -->
<svg xmlns:dc="http://purl.org/dc/elements/1.1/" xmlns:cc="http://creativecommons.org/ns#" xmlns:rdf="http://www.w3.org/1999/02/22-rdf-syntax-ns#" xmlns:svg="http://www.w3.org/2000/svg" xmlns="http://www.w3.org/2000/svg" xmlns:sodipodi="http://sodipodi.sourceforge.net/DTD/sodipodi-0.dtd" xmlns:inkscape="http://www.inkscape.org/namespaces/inkscape" height="205" width="60" id="svg2" sodipodi:version="0.32" inkscape:version="0.48.5 r10040" sodipodi:docname="PKP-W2.svg" inkscape:output_extension="org.inkscape.output.svg.inkscape" version="1.0" sodipodi:modified="true">
  <defs id="defs4"/>
  <sodipodi:namedview id="base" pagecolor="#ffffff" bordercolor="#666666" borderopacity="1.0" inkscape:pageopacity="0.0" inkscape:pageshadow="2" inkscape:cx="85.251288" inkscape:cy="71.93115" inkscape:zoom="2" inkscape:document-units="px" inkscape:current-layer="layer1" showgrid="false" inkscape:object-bbox="true" inkscape:object-points="true" inkscape:object-nodes="true" objecttolerance="10000" inkscape:grid-points="true" gridtolerance="10000" inkscape:window-width="1538" inkscape:window-height="877" inkscape:window-x="-8" inkscape:window-y="-8" width="60px" height="205px" showguides="false" inkscape:window-maximized="1">
    <inkscape:grid id="GridFromPre046Settings" type="xygrid" originx="0px" originy="0px" spacingx="5px" spacingy="5px" color="#3f3fff" empcolor="#3f3fff" opacity="0.15" empopacity="0.38" empspacing="5"/>
  </sodipodi:namedview>
  <metadata id="metadata7">
    <rdf:RDF>
      <cc:Work rdf:about="">
        <dc:format>image/svg+xml</dc:format>
        <dc:type rdf:resource="http://purl.org/dc/dcmitype/StillImage"/>
      </cc:Work>
    </rdf:RDF>
  </metadata>
  <g inkscape:groupmode="layer" inkscape:label="Warstwa 1" id="layer1">
    <g id="g3390" transform="matrix(0.99996512,0,0,1,5.0008768,0)">
      <g transform="translate(-5,-2.36218)" id="g3196">
        <path inkscape:connector-curvature="0" style="fill:#dcdcdc;fill-opacity:1;stroke:#000000;stroke-width:1;stroke-linecap:round;stroke-linejoin:round;stroke-miterlimit:4;stroke-opacity:1;stroke-dasharray:none;stroke-dashoffset:0" d="m 25,102.36218 2.6e-5,69.72768 c 2.754593,0.57041 5,-1.15625 5,-1.15625 1.810202,-1.42622 3.61161,-1.48688 5,-1.15625 L 35,102.36218 l -10,0 z m 8.468776,73.16518 c -2.01416,0.14426 -3.46875,1.3125 -3.46875,1.3125 -1.810202,1.42622 -3.61161,1.45563 -5,1.125 L 25,202.36218 l 10,0 2.6e-5,-26.70982 c -0.529729,-0.10948 -1.051482,-0.15936 -1.53125,-0.125 z" id="rect3188" sodipodi:nodetypes="ccccccccccccc"/>
        <path inkscape:connector-curvature="0" style="fill:#dcdcdc;fill-opacity:1;stroke:#000000;stroke-width:1;stroke-linecap:round;stroke-linejoin:round;stroke-miterlimit:4;stroke-opacity:1;stroke-dasharray:none;stroke-dashoffset:0" d="M 28.96875,7.3621826 C 18.406196,7.8981738 10,16.667183 10,27.362183 c 0,0.10445 -0.0016,0.208429 0,0.3125 l 0,59.6875 0,0.3125 c 0.167327,10.895955 9.06445,19.687487 20,19.687487 10.93555,0 19.832673,-8.791532 20,-19.687487 0.0016,-0.104071 0,-0.20805 0,-0.3125 l 0,-59.6875 c 0.0016,-0.104071 0,-0.20805 0,-0.3125 0,-11.04 -8.96,-20.0000004 -20,-20.0000004 -0.345,0 -0.690522,-0.01729 -1.03125,0 z" id="path2211"/>
      </g>
      <g transform="translate(-75,4.9497475)" id="g3368"/>
    </g>
    <rect style="fill:#000000;fill-rule:evenodd;stroke:#000000;stroke-width:1.06072998px;stroke-linecap:butt;stroke-linejoin:miter;stroke-opacity:1" id="rect2999" width="28.93927" height="28.93927" x="15.530365" y="109.53036"/>
    <text xml:space="preserve" style="font-size:38.41064835px;font-style:normal;font-weight:normal;line-height:125%;letter-spacing:0px;word-spacing:0px;fill:#ffffff;fill-opacity:1;stroke:none;font-family:Sans" x="13.098633" y="150.12335" id="text3772" sodipodi:linespacing="125%" transform="scale(1.0998049,0.90925217)"><tspan sodipodi:role="line" id="tspan3774" x="13.098633" y="150.12335">K</tspan></text>
  </g>
<script xmlns=""/></svg>