<?xml version="1.0" encoding="UTF-8" standalone="no"?>
<!-- Created with Inkscape (http://www.inkscape.org/) -->

<svg
   xmlns:dc="http://purl.org/dc/elements/1.1/"
   xmlns:cc="http://creativecommons.org/ns#"
   xmlns:rdf="http://www.w3.org/1999/02/22-rdf-syntax-ns#"
   xmlns:svg="http://www.w3.org/2000/svg"
   xmlns="http://www.w3.org/2000/svg"
   xmlns:sodipodi="http://sodipodi.sourceforge.net/DTD/sodipodi-0.dtd"
   xmlns:inkscape="http://www.inkscape.org/namespaces/inkscape"
   height="92"
   width="122"
   id="svg2"
   sodipodi:version="0.32"
   inkscape:version="0.48.5 r10040"
   version="1.0"
   sodipodi:docname="PKP-W32.svg"
   inkscape:output_extension="org.inkscape.output.svg.inkscape">
  <defs
     id="defs4" />
  <sodipodi:namedview
     id="base"
     pagecolor="#ffffff"
     bordercolor="#666666"
     borderopacity="1.0"
     inkscape:pageopacity="0.0"
     inkscape:pageshadow="2"
     inkscape:cx="63.265556"
     inkscape:cy="47.980038"
     inkscape:zoom="7.1988034"
     inkscape:document-units="px"
     inkscape:current-layer="layer1"
     width="128px"
     height="128px"
     inkscape:window-width="1538"
     inkscape:window-height="877"
     inkscape:window-x="-8"
     inkscape:window-y="-8"
     showguides="true"
     inkscape:guide-bbox="true"
     showgrid="false"
     inkscape:window-maximized="1" />
  <metadata
     id="metadata7">
    <rdf:RDF>
      <cc:Work
         rdf:about="">
        <dc:format>image/svg+xml</dc:format>
        <dc:type
           rdf:resource="http://purl.org/dc/dcmitype/StillImage" />
      </cc:Work>
    </rdf:RDF>
  </metadata>
  <g
     inkscape:groupmode="layer"
     inkscape:label="Warstwa 1"
     id="layer1"
     transform="translate(0,-36)">
    <path
       style="color:#000000;fill:#ffffff;fill-opacity:1;fill-rule:nonzero;stroke:#000000;stroke-width:2.29486942;stroke-linecap:butt;stroke-linejoin:round;stroke-miterlimit:4;stroke-opacity:1;stroke-dashoffset:0;marker:none;visibility:visible;display:inline;overflow:visible;enable-background:accumulate"
       d="m 17.147438,53.147439 43.852566,0 43.852566,28.852564 0,28.852567 -87.705132,0 0,-57.705131 z"
       id="rect4160"
       sodipodi:nodetypes="cccccc"
       inkscape:connector-curvature="0" />
    <g
       style="font-size:40px;font-style:normal;font-weight:bold;line-height:125%;letter-spacing:0px;word-spacing:0px;fill:#000000;fill-opacity:1;stroke:none;font-family:Sans;-inkscape-font-specification:Sans Bold"
       id="text2984">
      <path
         d="m 41.273664,98.111465 0,5.097655 -19.238281,0 c 0.208332,-1.92708 0.833332,-3.75325 1.875,-5.478514 1.041663,-1.725253 3.098953,-4.013662 6.171875,-6.865234 2.473947,-2.304673 3.990873,-3.867172 4.550781,-4.6875 0.755194,-1.132795 1.132798,-2.252585 1.132813,-3.359375 -1.5e-5,-1.223937 -0.32879,-2.164691 -0.986328,-2.822266 -0.657565,-0.657528 -1.565768,-0.986304 -2.72461,-0.986328 -1.145843,2.4e-5 -2.0573,0.345076 -2.734375,1.035156 -0.67709,0.690127 -1.067715,1.835959 -1.171875,3.4375 l -5.46875,-0.546875 c 0.325519,-3.02081 1.347654,-5.188776 3.066407,-6.503906 1.718743,-1.315076 3.867179,-1.972628 6.445312,-1.972656 2.825507,2.8e-5 5.045557,0.761746 6.660156,2.285156 1.614564,1.523462 2.421855,3.417992 2.421875,5.683594 -2e-5,1.289082 -0.231139,2.516294 -0.693359,3.68164 -0.462259,1.165381 -1.19468,2.386083 -2.197266,3.66211 -0.664079,0.846366 -1.861994,2.063813 -3.59375,3.652343 -1.731782,1.58855 -2.828786,2.643237 -3.291015,3.164063 -0.46225,0.520839 -0.836598,1.028651 -1.123047,1.523437 z"
         id="path2991"
         inkscape:connector-curvature="0" />
      <path
         d="m 54.281477,74.459122 c 2.773424,2.8e-5 4.94139,0.989611 6.503906,2.96875 1.86196,2.343773 2.792949,6.230488 2.792969,11.660156 -2e-5,5.416675 -0.937519,9.309901 -2.8125,11.679692 -1.549495,1.95312 -3.710951,2.92968 -6.484375,2.92968 -2.786467,0 -5.032558,-1.07096 -6.738281,-3.21289 -1.705732,-2.14192 -2.558596,-5.960275 -2.558594,-11.455076 -2e-6,-5.390605 0.937497,-9.27081 2.8125,-11.640625 1.549473,-1.953097 3.710929,-2.929659 6.484375,-2.929687 z m 0,4.550781 c -0.664073,2.4e-5 -1.25652,0.211612 -1.777344,0.634766 -0.520842,0.4232 -0.924487,1.181663 -1.210937,2.27539 -0.377612,1.419291 -0.566414,3.808611 -0.566407,7.167969 -7e-6,3.359386 0.169264,5.667326 0.507813,6.923828 0.338533,1.256516 0.764965,2.093104 1.279297,2.509766 0.514313,0.416671 1.103505,0.625004 1.767578,0.625 0.664051,4e-6 1.256498,-0.211585 1.777344,-0.634766 0.52082,-0.423172 0.924465,-1.181635 1.210937,-2.275391 0.37759,-1.406241 0.566392,-3.789051 0.566406,-7.148437 C 57.83615,85.72867 57.666879,83.42073 57.328352,82.1642 56.989797,80.907712 56.563365,80.067869 56.049055,79.644669 55.53472,79.221515 54.945528,79.009927 54.281477,79.009903 z"
         id="path2993"
         inkscape:connector-curvature="0" />
      <path
         d="m 76.547102,74.459122 c 2.773424,2.8e-5 4.94139,0.989611 6.503906,2.96875 1.86196,2.343773 2.792949,6.230488 2.792969,11.660156 -2e-5,5.416675 -0.937519,9.309901 -2.8125,11.679692 -1.549495,1.95312 -3.710951,2.92968 -6.484375,2.92968 -2.786467,0 -5.032558,-1.07096 -6.738281,-3.21289 -1.705732,-2.14192 -2.558596,-5.960275 -2.558594,-11.455076 -2e-6,-5.390605 0.937497,-9.27081 2.8125,-11.640625 1.549473,-1.953097 3.710929,-2.929659 6.484375,-2.929687 z m 0,4.550781 c -0.664073,2.4e-5 -1.25652,0.211612 -1.777344,0.634766 -0.520842,0.4232 -0.924487,1.181663 -1.210937,2.27539 -0.377612,1.419291 -0.566414,3.808611 -0.566407,7.167969 -7e-6,3.359386 0.169264,5.667326 0.507813,6.923828 0.338533,1.256516 0.764965,2.093104 1.279297,2.509766 0.514313,0.416671 1.103505,0.625004 1.767578,0.625 0.664051,4e-6 1.256498,-0.211585 1.777344,-0.634766 0.52082,-0.423172 0.924465,-1.181635 1.210937,-2.275391 0.37759,-1.406241 0.566392,-3.789051 0.566406,-7.148437 C 80.101775,85.72867 79.932504,83.42073 79.593977,82.1642 79.255422,80.907712 78.82899,80.067869 78.31468,79.644669 77.800345,79.221515 77.211153,79.009927 76.547102,79.009903 z"
         id="path2995"
         inkscape:connector-curvature="0" />
    </g>
  </g>
</svg>
