<?xml version="1.0" encoding="UTF-8" standalone="no"?>
<!-- Created with Inkscape (http://www.inkscape.org/) -->

<svg
   height="72.53968"
   width="40"
   id="svg2848"
   sodipodi:version="0.32"
   inkscape:version="0.48.5 r10040"
   version="1.0"
   sodipodi:docname="W_9_Wskaźnik_odcinka_ograniczonej_prędkości.svg"
   xml:space="preserve"
   xmlns:inkscape="http://www.inkscape.org/namespaces/inkscape"
   xmlns:sodipodi="http://sodipodi.sourceforge.net/DTD/sodipodi-0.dtd"
   xmlns="http://www.w3.org/2000/svg"
   xmlns:svg="http://www.w3.org/2000/svg"
   xmlns:rdf="http://www.w3.org/1999/02/22-rdf-syntax-ns#"
   xmlns:cc="http://creativecommons.org/ns#"
   xmlns:dc="http://purl.org/dc/elements/1.1/"><defs
     id="defs2850" /><sodipodi:namedview
     id="base"
     pagecolor="#ffffff"
     bordercolor="#666666"
     borderopacity="1.0"
     inkscape:pageopacity="0.0"
     inkscape:pageshadow="2"
     inkscape:cx="186.22658"
     inkscape:cy="24.029061"
     inkscape:zoom="2.6728636"
     inkscape:document-units="px"
     inkscape:current-layer="layer1"
     height="90px"
     width="175px"
     showgrid="false"
     inkscape:object-points="true"
     inkscape:object-bbox="true"
     objecttolerance="10000"
     inkscape:grid-points="true"
     gridtolerance="10000"
     inkscape:window-width="1538"
     inkscape:window-height="877"
     inkscape:window-x="-8"
     inkscape:window-y="-8"
     inkscape:window-maximized="1"
     inkscape:showpageshadow="0"
     inkscape:pagecheckerboard="0"
     inkscape:deskcolor="#d1d1d1"><inkscape:grid
       id="GridFromPre046Settings"
       type="xygrid"
       originx="0"
       originy="0"
       spacingx="5"
       spacingy="5"
       color="#3f3fff"
       empcolor="#3f3fff"
       opacity="0.15"
       empopacity="0.38"
       empspacing="5"
       visible="true"
       enabled="true"
       snapvisiblegridlinesonly="true" /></sodipodi:namedview><metadata
     id="metadata2853"><rdf:RDF><cc:Work
         rdf:about=""><dc:format>image/svg+xml</dc:format><dc:type
           rdf:resource="http://purl.org/dc/dcmitype/StillImage" /></cc:Work></rdf:RDF></metadata><g
     inkscape:groupmode="layer"
     inkscape:label="Warstwa 1"
     id="layer1"
     transform="translate(-58,4)"><g
       id="g2866"
       transform="translate(3,-16.5)"><rect
         y="72.5"
         x="72"
         height="12.539682"
         width="6"
         id="rect2768"
         style="fill:#a9a9a9;fill-opacity:1;stroke:none;stroke-width:0.646521" /><g
         transform="matrix(2,0,0,-2,-55,142.5)"
         id="g2781"><rect
           style="fill:#000000;fill-opacity:1;stroke:none"
           id="rect2770"
           width="20"
           height="30"
           x="55"
           y="35" /><rect
           style="fill:#ffffff;fill-opacity:1;stroke:none"
           id="rect2772"
           width="16"
           height="26"
           x="57"
           y="37" /><path
           style="fill:#000000;fill-rule:evenodd;stroke:none"
           d="m 57,36 v 1 L 65.074741,63 73,37 V 36 H 71 L 65,57 59,36 Z"
           id="path2774"
           sodipodi:nodetypes="ccccc"
           inkscape:connector-curvature="0" /></g></g><g
       id="g1936"
       transform="matrix(0.5,0,0,0.5,-60.953542,-13.15617)"><g
         transform="matrix(0.5,0,0,0.5,18.61562,-7.572032)"
         id="g1886"><path
           style="fill:#000000;fill-opacity:1;fill-rule:evenodd;stroke:none;stroke-width:7.22624;stroke-linecap:butt;stroke-linejoin:miter;stroke-miterlimit:4;stroke-dasharray:none;stroke-opacity:1"
           d="m 517.79242,199.97766 c -1.50897,0.0574 -4.97923,0.40216 -8.61879,2.18292 -4.85275,2.37434 -9.99669,8.12733 -10.16189,17.31286 v 0.0376 0.0376 24.08745 0.26345 c 0.005,0.67478 0.12875,4.83036 2.35228,9.27744 2.42045,4.84089 8.18598,10.03016 17.21877,10.03016 0,0 4.7,0.0682 9.54089,-2.35229 4.84089,-2.42044 10.03017,-8.18596 10.03017,-17.21876 0,-0.13939 0.0615,-4.8525 -2.37112,-9.67262 -2.43258,-4.82011 -8.19503,-9.89843 -17.19994,-9.89843 0,0 -4.7,-0.0682 -9.54089,2.35229 -0.33297,0.16648 -0.66291,0.34761 -0.99737,0.54572 v -7.41441 c 0.11358,-6.3152 2.49488,-8.00293 5.09977,-9.27743 2.60488,-1.27451 5.30676,-1.26083 5.30676,-1.26083 h 0.0565 0.0753 c 6.02252,0 7.784,2.3587 9.12688,5.04331 1.3429,2.6846 1.41138,5.49495 1.41138,5.49495 h 9.0328 c 0,0 0.0685,-4.70146 -2.35229,-9.54089 -2.42078,-4.83943 -8.18663,-10.03016 -17.21877,-10.03016 0,0 -0.28738,-0.0192 -0.79037,0 z m 0.79037,33.12024 c 6.04974,0 7.81462,2.3117 9.1457,4.94921 1.33109,2.63752 1.39256,5.44966 1.39256,5.58905 0,6.02186 -2.33804,7.78367 -5.02449,9.12689 -2.68645,1.34321 -5.51377,1.41137 -5.51377,1.41137 -6.02186,0 -7.78367,-2.33805 -9.12688,-5.02449 -1.34323,-2.68645 -1.41138,-5.51377 -1.41138,-5.51377 0,-6.02186 2.33805,-7.78367 5.0245,-9.12689 2.68644,-1.34321 5.51376,-1.41137 5.51376,-1.41137 z"
           id="path6449" /></g></g></g></svg>
