<svg xmlns="http://www.w3.org/2000/svg" xmlns:xlink="http://www.w3.org/1999/xlink" xml:space="preserve" width="212.666" height="256.187" version="1.0"><defs><radialGradient xlink:href="#a" id="k" cx="111.071" cy="70.219" r="13.929" fx="111.071" fy="70.219" gradientTransform="matrix(.57436 0 0 .57436 -38.795 -24.492)" gradientUnits="userSpaceOnUse"/><radialGradient xlink:href="#b" id="l" cx="25" cy="26" r="15.875" fx="25" fy="26" gradientTransform="rotate(-46.157 13.077 20.92)" gradientUnits="userSpaceOnUse"/><radialGradient xlink:href="#c" id="i" cx="111.071" cy="70.219" r="13.929" fx="111.071" fy="70.219" gradientTransform="matrix(.93687 0 0 .93687 18.54 27.702)" gradientUnits="userSpaceOnUse"/><radialGradient xlink:href="#d" id="n" cx="111.071" cy="70.219" r="13.929" fx="111.071" fy="70.219" gradientUnits="userSpaceOnUse" spreadMethod="pad"/><radialGradient xlink:href="#e" id="p" cx="25" cy="26" r="15.875" fx="25" fy="26" gradientTransform="rotate(22.75 25 26)" gradientUnits="userSpaceOnUse"/><radialGradient xlink:href="#f" id="m" cx="111.071" cy="70.219" r="13.929" fx="111.071" fy="70.219" gradientTransform="matrix(.88396 0 0 .88396 -73.183 -48.15)" gradientUnits="userSpaceOnUse"/><radialGradient xlink:href="#c" id="j" cx="111.071" cy="70.219" r="13.929" fx="111.071" fy="70.219" gradientTransform="matrix(.93687 0 0 .93687 18.54 27.702)" gradientUnits="userSpaceOnUse"/><radialGradient xlink:href="#c" id="o" cx="111.071" cy="70.219" r="13.929" fx="111.071" fy="70.219" gradientUnits="userSpaceOnUse"/><radialGradient xlink:href="#h" id="r" cx="25" cy="26" r="15.875" fx="25" fy="26" gradientTransform="translate(0 -12)" gradientUnits="userSpaceOnUse"/><linearGradient id="g"><stop offset="0" style="stop-color:#000;stop-opacity:0"/><stop offset="1" style="stop-color:#000;stop-opacity:.30927834"/></linearGradient><linearGradient id="f"><stop offset="0" style="stop-color:#ff9d71;stop-opacity:1"/><stop offset="1" style="stop-color:red;stop-opacity:1"/></linearGradient><linearGradient id="d"><stop offset="0" style="stop-color:#71ffe1;stop-opacity:1"/><stop offset="1" style="stop-color:#00c85e;stop-opacity:1"/></linearGradient><linearGradient id="a"><stop offset="0" style="stop-color:#fff;stop-opacity:1"/><stop offset="1" style="stop-color:#ffdf91;stop-opacity:1"/></linearGradient><linearGradient id="c"><stop offset="0" style="stop-color:#fff027;stop-opacity:1"/><stop offset="1" style="stop-color:#ff8e00;stop-opacity:1"/></linearGradient><linearGradient id="h"><stop offset="0" style="stop-color:#fff027;stop-opacity:1"/><stop offset=".5" style="stop-color:#fff027;stop-opacity:1"/><stop offset="1" style="stop-color:#ff8e00;stop-opacity:0"/></linearGradient><linearGradient id="e"><stop offset="0" style="stop-color:#71ffe1;stop-opacity:1"/><stop offset=".5" style="stop-color:#71ffe1;stop-opacity:1"/><stop offset="1" style="stop-color:#00c85e;stop-opacity:0"/></linearGradient><linearGradient id="b"><stop offset="0" style="stop-color:#fff09a;stop-opacity:1"/><stop offset=".5" style="stop-color:#fff;stop-opacity:1"/><stop offset="1" style="stop-color:#ffffbf;stop-opacity:0"/></linearGradient></defs><g color="#000" style="display:inline"><path fill="#333" d="M5 28V0h40v28" overflow="visible" style="marker:none" transform="translate(71.34 147.737)scale(1.56479)"/><path fill="url(#i)" d="M135.65 93.489a13.05 13.05 0 1 1-26.099 0 13.05 13.05 0 1 1 26.099 0" overflow="visible" style="display:inline;fill:url(#j);stroke-width:.936874;marker:none" transform="matrix(1.47642 0 0 1.47642 -70.549 31.738)"/></g><g style="display:inline"><path fill="#333" d="M45 .293v14c0 11.04-8.96 20-20 20s-20-8.96-20-20v-14" overflow="visible" style="display:inline;stroke-width:1;marker:none" transform="translate(71.34 188.879)scale(1.56479)"/><g style="display:inline" transform="matrix(2.55243 0 0 2.55243 46.65 175.052)"><circle cx="25" cy="15.839" r="8" style="color:#000;display:inline;overflow:visible;visibility:visible;opacity:1;fill:url(#k);fill-opacity:1;fill-rule:nonzero;stroke:none;stroke-width:.574359;stroke-linecap:butt;stroke-linejoin:miter;stroke-miterlimit:4;stroke-dasharray:none;stroke-dashoffset:0;stroke-opacity:1;marker:none;marker-start:none;marker-mid:none;marker-end:none"/><path d="M10.606 7.908c-.729 1.324-1.192 2.542-1.554 4.01l7.108 1.757a9.2 9.2 0 0 1 .883-2.228zm5.888-6.13 3.796 6.288a9.2 9.2 0 0 1 2.19-.972L20.439.062c-1.452.421-2.65.933-3.944 1.716M9.224 20.4c.42 1.453.932 2.65 1.714 3.944l6.289-3.796a9.2 9.2 0 0 1-.973-2.19ZM28.92-.109l-1.757 7.108a9.2 9.2 0 0 1 2.228.883l3.539-6.436C31.607.716 30.389.253 28.921-.11m-8.313 23.905-3.539 6.437c1.324.73 2.542 1.193 4.01 1.554l1.757-7.108a9.2 9.2 0 0 1-2.228-.883M32.773 11.13c.418.69.754 1.433.973 2.19l7.03-2.042c-.42-1.452-.932-2.65-1.714-3.944Zm-5.254 13.456 2.043 7.031c1.452-.42 2.65-.933 3.944-1.715l-3.796-6.289a9.2 9.2 0 0 1-2.19.973m6.321-6.582a9.2 9.2 0 0 1-.883 2.228l6.437 3.54c.729-1.325 1.192-2.543 1.554-4.01z" style="color:#000;display:inline;overflow:visible;visibility:visible;fill:url(#l);fill-opacity:1;fill-rule:nonzero;stroke:none;stroke-width:1;stroke-linecap:butt;stroke-linejoin:miter;stroke-miterlimit:4;stroke-dashoffset:0;stroke-opacity:1;marker:none;marker-start:none;marker-mid:none;marker-end:none"/></g></g><g color="#000" style="display:inline"><path fill="#333" d="M5 28V0h40v28" overflow="visible" style="marker:none" transform="translate(71.34 103.923)scale(1.56479)"/><path fill="url(#i)" d="M37.312 13.922a12.312 12.312 0 1 1-24.624 0 12.312 12.312 0 1 1 24.624 0" overflow="visible" style="display:inline;fill:url(#m);stroke-width:.883963;marker:none" transform="translate(71.34 103.923)scale(1.56479)"/></g><g style="display:inline"><path fill="#333" d="M5 40V26C5 14.96 13.96 6 25 6s20 8.96 20 20v14" color="#000" overflow="visible" style="marker:none" transform="translate(71.34 2.238)scale(1.56479)"/></g><g color="#000" style="display:inline"><path fill="#333" d="M5 28V0h40v28" overflow="visible" style="marker:none" transform="translate(71.34 60.109)scale(1.56479)"/><path fill="url(#i)" d="M135.65 93.489a13.05 13.05 0 1 1-26.099 0 13.05 13.05 0 1 1 26.099 0" overflow="visible" style="display:inline;fill:url(#i);stroke-width:.936874;marker:none" transform="matrix(1.47642 0 0 1.47642 -70.549 -55.89)"/></g><g color="#000" style="display:inline"><path fill="url(#n)" d="M125 70.22a13.929 13.929 0 1 1-27.857 0 13.929 13.929 0 1 1 27.857 0" overflow="visible" style="fill:url(#o);marker:none" transform="translate(-43.17 -15.11)scale(1.38317)"/><path d="m29.25-1.875-1.906 7.094c.779.208 1.536.51 2.218.906L33.22-.219c-1.31-.756-2.509-1.265-3.969-1.656M10.781 5.781c-.756 1.31-1.265 2.509-1.656 3.969l7.094 1.906c.208-.779.51-1.536.906-2.219Zm23 10.563a9.2 9.2 0 0 1-.906 2.218l6.344 3.657c.756-1.31 1.265-2.509 1.656-3.969Zm-13.343 5.531-3.657 6.344c1.31.756 2.509 1.265 3.969 1.656l1.906-7.094a9.2 9.2 0 0 1-2.218-.906" style="display:inline;fill:url(#r);marker:none" transform="scale(2.4082)rotate(22.278 -15.499 77.022)"/></g><g style="display:inline"><path fill="url(#n)" d="M125 70.22a13.929 13.929 0 1 1-27.857 0 13.929 13.929 0 1 1 27.857 0" overflow="visible" style="fill:url(#n);marker:none" transform="matrix(1.38309 0 0 1.38309 -43.16 -58.892)"/><path d="m35.059 13.004-4.502 5.804a9.2 9.2 0 0 1 1.696 1.694l5.825-4.436c-.915-1.204-1.824-2.137-3.02-3.062m-19.993-.082c-1.204.915-2.137 1.824-3.062 3.02l5.804 4.5a9.2 9.2 0 0 1 1.694-1.695zm17.126 18.635a9.2 9.2 0 0 1-1.694 1.696l4.436 5.825c1.204-.915 2.137-1.824 3.062-3.02zm-14.445-.06-5.825 4.437c.915 1.204 1.824 2.137 3.02 3.062l4.5-5.804a9.2 9.2 0 0 1-1.695-1.694" style="display:inline;fill:url(#p);stroke-width:.999979;stroke-dasharray:none;marker:none" transform="translate(50.26 -24.382)scale(2.40805)"/></g><path d="M20 37.515h10V50H20z" style="color:#000;display:inline;overflow:visible;visibility:visible;opacity:1;fill:#d35f5f;fill-opacity:1;fill-rule:nonzero;stroke:none;stroke-width:.3697;stroke-linecap:butt;stroke-linejoin:round;stroke-miterlimit:4;stroke-dasharray:none;stroke-dashoffset:0;stroke-opacity:1;marker:none;marker-start:none;marker-mid:none;marker-end:none" transform="matrix(3.92837 0 0 6.84658 94.815 -86.329)"/><path d="M19.934 25.062h10v12.485h-10z" style="color:#000;display:inline;overflow:visible;visibility:visible;opacity:1;fill:#ececec;fill-opacity:1;fill-rule:nonzero;stroke:none;stroke-width:.3697;stroke-linecap:butt;stroke-linejoin:round;stroke-miterlimit:4;stroke-dasharray:none;stroke-dashoffset:0;stroke-opacity:1;marker:none;marker-start:none;marker-mid:none;marker-end:none" transform="matrix(3.92837 0 0 6.84658 94.815 -86.329)"/><path d="M19.935 12.609h10v12.485h-10z" style="color:#000;display:inline;overflow:visible;visibility:visible;opacity:1;fill:#d35f5f;fill-opacity:1;fill-rule:nonzero;stroke:none;stroke-width:.3697;stroke-linecap:butt;stroke-linejoin:round;stroke-miterlimit:4;stroke-dasharray:none;stroke-dashoffset:0;stroke-opacity:1;marker:none;marker-start:none;marker-mid:none;marker-end:none" transform="matrix(3.92837 0 0 6.84658 94.815 -86.329)"/><path d="M16.433 4.123h17.006v12.755H16.433z" style="color:#000;display:inline;overflow:visible;visibility:visible;fill:#ececec;fill-opacity:1;fill-rule:nonzero;stroke:#b4b4b4;stroke-width:.425155;stroke-linecap:butt;stroke-linejoin:round;stroke-miterlimit:4;stroke-dasharray:none;stroke-dashoffset:0;stroke-opacity:1;marker:none;marker-start:none;marker-mid:none;marker-end:none" transform="matrix(3.55141 0 0 3.55141 -57.605 88.54)"/><g transform="matrix(3.55141 0 0 3.55141 -73 89.937)"><path d="M31.899 10.245c-.544.01-1.277-.097-1.614.438-.248.45-.108.986-.151 1.476l.926-.01c.002-.306-.014-.569.102-.834.163-.374 1.131-.404 1.024.243-.058.347-.3.797-.653 1.11-.463.543-1.064 1.023-1.424 1.636l.003.71c.897-.02 2.182.002 3.079-.006l-.002-.929-1.58-.009c.523-.62 1.281-1.154 1.51-1.969.117-.54.11-1.189-.263-1.624-.26-.217-.633-.238-.957-.232" style="color:#000;font-style:normal;font-variant:normal;font-weight:400;font-stretch:normal;font-size:28px;line-height:normal;font-family:Latha;text-indent:0;text-align:start;text-decoration:none;text-decoration-line:none;letter-spacing:normal;word-spacing:normal;text-transform:none;writing-mode:lr-tb;direction:ltr;text-anchor:start;display:inline;overflow:visible;visibility:visible;fill:#000;fill-opacity:1;fill-rule:nonzero;stroke:none;stroke-width:1;stroke-linecap:butt;stroke-linejoin:miter;stroke-miterlimit:4;stroke-dashoffset:0;stroke-opacity:1;marker:none;marker-start:none;marker-mid:none;marker-end:none"/><path d="M26.214 10.378V6.395l-.864.207V5.63l.9-.408.898-.022v5.178z" style="color:#000;font-style:normal;font-variant:normal;font-weight:400;font-stretch:normal;font-size:10px;line-height:normal;font-family:&quot;Lucida Sans&quot;;text-indent:0;text-align:start;text-decoration:none;text-decoration-line:none;letter-spacing:normal;word-spacing:normal;text-transform:none;writing-mode:lr-tb;direction:ltr;text-anchor:start;display:inline;overflow:visible;visibility:visible;fill:#000;fill-opacity:1;fill-rule:nonzero;stroke:none;stroke-width:1;stroke-linecap:butt;stroke-linejoin:miter;stroke-miterlimit:4;stroke-dashoffset:0;stroke-opacity:1;marker:none;marker-start:none;marker-mid:none;marker-end:none"/><rect width="1.037" height="10.734" x="29.117" y="-14.348" rx=".518" style="color:#000;display:inline;overflow:visible;visibility:visible;opacity:1;fill:#000;fill-opacity:1;fill-rule:nonzero;stroke:none;stroke-width:.5;stroke-linecap:butt;stroke-linejoin:round;stroke-miterlimit:4;stroke-dasharray:none;stroke-dashoffset:0;stroke-opacity:1;marker:none;marker-start:none;marker-mid:none;marker-end:none" transform="rotate(36.171)"/></g></svg>