<svg xmlns="http://www.w3.org/2000/svg" xmlns:xlink="http://www.w3.org/1999/xlink" xml:space="preserve" width="256" height="256" version="1.0"><defs><radialGradient xlink:href="#a" id="l" cx="111.071" cy="70.219" r="13.929" fx="111.071" fy="70.219" gradientTransform="matrix(.57436 0 0 .57436 -38.795 -24.492)" gradientUnits="userSpaceOnUse"/><radialGradient xlink:href="#c" id="j" cx="111.071" cy="70.219" r="13.929" fx="111.071" fy="70.219" gradientTransform="matrix(.93687 0 0 .93687 18.54 27.702)" gradientUnits="userSpaceOnUse"/><radialGradient xlink:href="#d" id="p" cx="111.071" cy="70.219" r="13.929" fx="111.071" fy="70.219" gradientUnits="userSpaceOnUse" spreadMethod="pad"/><radialGradient xlink:href="#e" id="r" cx="25" cy="26" r="15.875" fx="25" fy="26" gradientTransform="rotate(22.75 25 26)" gradientUnits="userSpaceOnUse"/><radialGradient xlink:href="#f" id="o" cx="111.071" cy="70.219" r="13.929" fx="111.071" fy="70.219" gradientTransform="matrix(.88396 0 0 .88396 -73.183 -48.15)" gradientUnits="userSpaceOnUse"/><radialGradient xlink:href="#c" id="k" cx="111.071" cy="70.219" r="13.929" fx="111.071" fy="70.219" gradientTransform="matrix(.93687 0 0 .93687 18.54 27.702)" gradientUnits="userSpaceOnUse"/><radialGradient xlink:href="#c" id="q" cx="111.071" cy="70.219" r="13.929" fx="111.071" fy="70.219" gradientUnits="userSpaceOnUse"/><radialGradient xlink:href="#d" id="E" cx="22" cy="5.5" r=".75" fx="22" fy="5.5" gradientTransform="matrix(4.1583 0 0 3.84971 -76.678 -15.195)" gradientUnits="userSpaceOnUse"/><radialGradient xlink:href="#d" id="F" cx="22" cy="5.5" r=".75" fx="22" fy="5.5" gradientTransform="matrix(-4.1583 0 0 3.84971 100.05 -15.195)" gradientUnits="userSpaceOnUse"/><radialGradient xlink:href="#d" id="y" cx="22" cy="5.5" r=".75" fx="22" fy="5.5" gradientTransform="matrix(4.1583 0 0 3.84971 -76.678 -15.195)" gradientUnits="userSpaceOnUse"/><radialGradient xlink:href="#d" id="z" cx="22" cy="5.5" r=".75" fx="22" fy="5.5" gradientTransform="matrix(-4.1583 0 0 3.84971 100.05 -15.195)" gradientUnits="userSpaceOnUse"/><radialGradient xlink:href="#d" id="B" cx="22" cy="5.5" r=".75" fx="22" fy="5.5" gradientTransform="matrix(4.1583 0 0 3.84971 -76.678 -15.195)" gradientUnits="userSpaceOnUse"/><radialGradient xlink:href="#d" id="C" cx="22" cy="5.5" r=".75" fx="22" fy="5.5" gradientTransform="matrix(-4.1583 0 0 3.84971 100.05 -15.195)" gradientUnits="userSpaceOnUse"/><radialGradient xlink:href="#c" id="H" cx="22" cy="5.5" r=".75" fx="22" fy="5.5" gradientTransform="matrix(2 0 0 2 -24 -4.5)" gradientUnits="userSpaceOnUse"/><radialGradient xlink:href="#c" id="I" cx="22" cy="5.5" r=".75" fx="22" fy="5.5" gradientTransform="matrix(-2 0 0 2 61 -4.5)" gradientUnits="userSpaceOnUse"/><radialGradient xlink:href="#c" id="K" cx="22" cy="5.5" r=".75" fx="22" fy="5.5" gradientTransform="matrix(2 0 0 2 -11 -4.5)" gradientUnits="userSpaceOnUse"/><radialGradient xlink:href="#c" id="L" cx="22" cy="5.5" r=".75" fx="22" fy="5.5" gradientTransform="matrix(-2 0 0 2 74 -4.5)" gradientUnits="userSpaceOnUse"/><radialGradient xlink:href="#c" id="O" cx="22" cy="5.5" r=".75" fx="22" fy="5.5" gradientTransform="matrix(-4.1583 0 0 3.84971 113.564 -15.195)" gradientUnits="userSpaceOnUse"/><radialGradient xlink:href="#c" id="N" cx="22" cy="5.5" r=".75" fx="22" fy="5.5" gradientTransform="matrix(4.1583 0 0 3.84971 -63.164 -15.195)" gradientUnits="userSpaceOnUse"/><radialGradient xlink:href="#h" id="t" cx="25" cy="26" r="15.875" fx="25" fy="26" gradientTransform="translate(0 -12)" gradientUnits="userSpaceOnUse"/><radialGradient xlink:href="#b" id="n" cx="25" cy="26" r="15.875" fx="25" fy="26" gradientTransform="rotate(157.943 25.99 20.92)" gradientUnits="userSpaceOnUse"/><linearGradient id="g"><stop offset="0" style="stop-color:#000;stop-opacity:0"/><stop offset="1" style="stop-color:#000;stop-opacity:.30927834"/></linearGradient><linearGradient id="f"><stop offset="0" style="stop-color:#ff9d71;stop-opacity:1"/><stop offset="1" style="stop-color:red;stop-opacity:1"/></linearGradient><linearGradient id="d"><stop offset="0" style="stop-color:#71ffe1;stop-opacity:1"/><stop offset="1" style="stop-color:#00c85e;stop-opacity:1"/></linearGradient><linearGradient id="a"><stop offset="0" style="stop-color:#fff;stop-opacity:1"/><stop offset="1" style="stop-color:#ffdf91;stop-opacity:1"/></linearGradient><linearGradient id="c"><stop offset="0" style="stop-color:#fff027;stop-opacity:1"/><stop offset="1" style="stop-color:#ff8e00;stop-opacity:1"/></linearGradient><linearGradient id="h"><stop offset="0" style="stop-color:#fff027;stop-opacity:1"/><stop offset=".5" style="stop-color:#fff027;stop-opacity:1"/><stop offset="1" style="stop-color:#ff8e00;stop-opacity:0"/></linearGradient><linearGradient id="e"><stop offset="0" style="stop-color:#71ffe1;stop-opacity:1"/><stop offset=".5" style="stop-color:#71ffe1;stop-opacity:1"/><stop offset="1" style="stop-color:#00c85e;stop-opacity:0"/></linearGradient><linearGradient id="b"><stop offset="0" style="stop-color:#fff09a;stop-opacity:1"/><stop offset=".5" style="stop-color:#fff;stop-opacity:1"/><stop offset="1" style="stop-color:#ffffbf;stop-opacity:0"/></linearGradient><linearGradient id="i"><stop offset="0" style="stop-color:#000;stop-opacity:.68041235"/><stop offset="1" style="stop-color:#000;stop-opacity:0"/></linearGradient><linearGradient xlink:href="#c" id="J" x1="19.5" x2="19.5" y1="5.5" y2="4" gradientTransform="matrix(.6 0 0 1 19.8 1)" gradientUnits="userSpaceOnUse" spreadMethod="reflect"/><linearGradient xlink:href="#c" id="G" x1="19.5" x2="19.5" y1="5.5" y2="4" gradientTransform="matrix(.6 0 0 1 6.8 1)" gradientUnits="userSpaceOnUse" spreadMethod="reflect"/><linearGradient xlink:href="#i" id="w" x1="25" x2="25" y1="0" y2="10" gradientTransform="matrix(1 0 0 1.5985 0 15.015)" gradientUnits="userSpaceOnUse"/><linearGradient xlink:href="#d" id="D" x1="19.5" x2="19.5" y1="5.5" y2="4" gradientTransform="matrix(1.2475 0 0 1.92486 -12.64 -4.608)" gradientUnits="userSpaceOnUse" spreadMethod="reflect"/><linearGradient xlink:href="#c" id="M" x1="19.5" x2="19.5" y1="5.5" y2="4" gradientTransform="matrix(1.2475 0 0 1.92486 .874 -4.608)" gradientUnits="userSpaceOnUse" spreadMethod="reflect"/><linearGradient xlink:href="#d" id="x" x1="19.5" x2="19.5" y1="5.5" y2="4" gradientTransform="matrix(1.2475 0 0 1.92486 -12.64 -4.608)" gradientUnits="userSpaceOnUse" spreadMethod="reflect"/><linearGradient xlink:href="#d" id="A" x1="19.5" x2="19.5" y1="5.5" y2="4" gradientTransform="matrix(1.2475 0 0 1.92486 -12.64 -4.608)" gradientUnits="userSpaceOnUse" spreadMethod="reflect"/></defs><g color="#000" style="display:inline"><path fill="#333" d="M5 28V0h40v28" overflow="visible" style="marker:none" transform="translate(88.88 147.737)scale(1.56479)"/><path fill="url(#j)" d="M135.65 93.489a13.05 13.05 0 1 1-26.099 0 13.05 13.05 0 1 1 26.099 0" overflow="visible" style="display:inline;fill:url(#k);stroke-width:.936874;marker:none" transform="matrix(1.47642 0 0 1.47642 -53.01 31.738)"/></g><g style="display:inline"><path fill="#333" d="M45 .293v14c0 11.04-8.96 20-20 20s-20-8.96-20-20v-14" overflow="visible" style="display:inline;stroke-width:1;marker:none" transform="translate(88.88 188.879)scale(1.56479)"/><g style="display:inline" transform="matrix(2.55243 0 0 2.55243 64.19 175.052)"><circle cx="25" cy="15.839" r="8" style="color:#000;display:inline;overflow:visible;visibility:visible;opacity:1;fill:url(#l);fill-opacity:1;fill-rule:nonzero;stroke:none;stroke-width:.574359;stroke-linecap:butt;stroke-linejoin:miter;stroke-miterlimit:4;stroke-dasharray:none;stroke-dashoffset:0;stroke-opacity:1;marker:none;marker-start:none;marker-mid:none;marker-end:none"/><path d="M34.9 28.956c1.207-.91 2.127-1.833 3.057-3.025l-5.771-4.506a9.2 9.2 0 0 1-1.716 1.673zm-19.992-.16 4.507-5.771a9.2 9.2 0 0 1-1.673-1.716l-5.86 4.43c.912 1.207 1.834 2.127 3.026 3.057m17.35-18.427 5.86-4.43c-.912-1.207-1.834-2.127-3.026-3.057l-4.507 5.771a9.2 9.2 0 0 1 1.673 1.716m-14.444-.115A9.2 9.2 0 0 1 19.53 8.58L15.1 2.722c-1.207.911-2.127 1.833-3.057 3.025Z" style="color:#000;display:inline;overflow:visible;visibility:visible;fill:url(#n);fill-opacity:1;fill-rule:nonzero;stroke:none;stroke-width:1;stroke-linecap:butt;stroke-linejoin:miter;stroke-miterlimit:4;stroke-dashoffset:0;stroke-opacity:1;marker:none;marker-start:none;marker-mid:none;marker-end:none"/></g></g><g color="#000" style="display:inline"><path fill="#333" d="M5 28V0h40v28" overflow="visible" style="marker:none" transform="translate(88.88 103.923)scale(1.56479)"/><path fill="url(#j)" d="M37.312 13.922a12.312 12.312 0 1 1-24.624 0 12.312 12.312 0 1 1 24.624 0" overflow="visible" style="display:inline;fill:url(#o);stroke-width:.883963;marker:none" transform="translate(88.88 103.923)scale(1.56479)"/></g><g style="display:inline"><path fill="#333" d="M5 40V26C5 14.96 13.96 6 25 6s20 8.96 20 20v14" color="#000" overflow="visible" style="marker:none" transform="translate(88.88 2.238)scale(1.56479)"/></g><g color="#000" style="display:inline"><path fill="#333" d="M5 28V0h40v28" overflow="visible" style="marker:none" transform="translate(88.88 60.109)scale(1.56479)"/><path fill="url(#j)" d="M135.65 93.489a13.05 13.05 0 1 1-26.099 0 13.05 13.05 0 1 1 26.099 0" overflow="visible" style="display:inline;fill:url(#j);stroke-width:.936874;marker:none" transform="matrix(1.47642 0 0 1.47642 -53.01 -55.89)"/></g><g color="#000" style="display:inline"><path fill="url(#p)" d="M125 70.22a13.929 13.929 0 1 1-27.857 0 13.929 13.929 0 1 1 27.857 0" overflow="visible" style="fill:url(#q);marker:none" transform="translate(-25.63 -15.11)scale(1.38317)"/><path d="m29.25-1.875-1.906 7.094c.779.208 1.536.51 2.218.906L33.22-.219c-1.31-.756-2.509-1.265-3.969-1.656M10.781 5.781c-.756 1.31-1.265 2.509-1.656 3.969l7.094 1.906c.208-.779.51-1.536.906-2.219Zm23 10.563a9.2 9.2 0 0 1-.906 2.218l6.344 3.657c.756-1.31 1.265-2.509 1.656-3.969Zm-13.343 5.531-3.657 6.344c1.31.756 2.509 1.265 3.969 1.656l1.906-7.094a9.2 9.2 0 0 1-2.218-.906" style="display:inline;fill:url(#t);marker:none" transform="scale(2.4082)rotate(22.278 -11.857 95.518)"/></g><g style="display:inline"><path fill="url(#p)" d="M125 70.22a13.929 13.929 0 1 1-27.857 0 13.929 13.929 0 1 1 27.857 0" overflow="visible" style="fill:url(#p);marker:none" transform="matrix(1.38309 0 0 1.38309 -25.621 -58.892)"/><path d="m35.059 13.004-4.502 5.804a9.2 9.2 0 0 1 1.696 1.694l5.825-4.436c-.915-1.204-1.824-2.137-3.02-3.062m-19.993-.082c-1.204.915-2.137 1.824-3.062 3.02l5.804 4.5a9.2 9.2 0 0 1 1.694-1.695zm17.126 18.635a9.2 9.2 0 0 1-1.694 1.696l4.436 5.825c1.204-.915 2.137-1.824 3.062-3.02zm-14.445-.06-5.825 4.437c.915 1.204 1.824 2.137 3.02 3.062l4.5-5.804a9.2 9.2 0 0 1-1.695-1.694" style="display:inline;fill:url(#r);stroke-width:.999979;stroke-dasharray:none;marker:none" transform="translate(67.799 -24.382)scale(2.40805)"/></g><path d="M20 37.515h10V50H20z" style="color:#000;display:inline;overflow:visible;visibility:visible;opacity:1;fill:#d35f5f;fill-opacity:1;fill-rule:nonzero;stroke:none;stroke-width:.3697;stroke-linecap:butt;stroke-linejoin:round;stroke-miterlimit:4;stroke-dasharray:none;stroke-dashoffset:0;stroke-opacity:1;marker:none;marker-start:none;marker-mid:none;marker-end:none" transform="matrix(3.92837 0 0 6.84658 112.355 -86.329)"/><path d="M19.934 25.062h10v12.485h-10z" style="color:#000;display:inline;overflow:visible;visibility:visible;opacity:1;fill:#ececec;fill-opacity:1;fill-rule:nonzero;stroke:none;stroke-width:.3697;stroke-linecap:butt;stroke-linejoin:round;stroke-miterlimit:4;stroke-dasharray:none;stroke-dashoffset:0;stroke-opacity:1;marker:none;marker-start:none;marker-mid:none;marker-end:none" transform="matrix(3.92837 0 0 6.84658 112.355 -86.329)"/><path d="M19.935 12.609h10v12.485h-10z" style="color:#000;display:inline;overflow:visible;visibility:visible;opacity:1;fill:#d35f5f;fill-opacity:1;fill-rule:nonzero;stroke:none;stroke-width:.3697;stroke-linecap:butt;stroke-linejoin:round;stroke-miterlimit:4;stroke-dasharray:none;stroke-dashoffset:0;stroke-opacity:1;marker:none;marker-start:none;marker-mid:none;marker-end:none" transform="matrix(3.92837 0 0 6.84658 112.355 -86.329)"/><g style="display:inline"><path d="M2.959 14.951H47.04v16.113H2.96Z" style="color:#000;display:inline;overflow:visible;visibility:visible;fill:#1a1a1a;fill-opacity:1;fill-rule:nonzero;stroke:none;stroke-width:.851284;stroke-linecap:butt;stroke-linejoin:miter;stroke-miterlimit:4;stroke-dashoffset:0;stroke-opacity:1;marker:none;marker-start:none;marker-mid:none;marker-end:none" transform="matrix(1.97047 0 0 1.97047 -.77 33.82)"/><path d="M3 15.015h44V31H3z" style="color:#000;display:inline;overflow:visible;visibility:visible;opacity:1;fill:url(#w);fill-opacity:1;fill-rule:nonzero;stroke:none;stroke-width:.632157;stroke-linecap:square;stroke-linejoin:miter;stroke-miterlimit:4;stroke-dasharray:none;stroke-dashoffset:0;stroke-opacity:1;marker:none;marker-start:none;marker-mid:none;marker-end:none" transform="matrix(1.97047 0 0 1.97047 -.77 33.82)"/><g style="display:inline"><path d="M8.567 3.091h6.237v5.775H8.567z" style="color:#000;display:inline;overflow:visible;visibility:visible;fill:url(#x);fill-opacity:1;fill-rule:nonzero;stroke:none;stroke-width:1;stroke-linecap:butt;stroke-linejoin:miter;stroke-miterlimit:4;stroke-dasharray:none;stroke-dashoffset:0;stroke-opacity:1;marker:none;marker-start:none;marker-mid:none;marker-end:none" transform="matrix(1.97047 0 0 1.97047 -1.135 60.432)"/><path d="M17.923 5.979c0 1.593-1.397 2.887-3.119 2.887V3.09c1.722 0 3.119 1.294 3.119 2.888" style="color:#000;display:inline;overflow:visible;visibility:visible;fill:url(#y);fill-opacity:1;fill-rule:nonzero;stroke:none;stroke-width:1;stroke-linecap:butt;stroke-linejoin:miter;stroke-miterlimit:4;stroke-dashoffset:0;stroke-opacity:1;marker:none;marker-start:none;marker-mid:none;marker-end:none" transform="matrix(1.97047 0 0 1.97047 -1.135 60.432)"/><path d="M5.448 5.979c0 1.593 1.397 2.887 3.119 2.887V3.09c-1.722 0-3.119 1.294-3.119 2.888" style="color:#000;display:inline;overflow:visible;visibility:visible;fill:url(#z);fill-opacity:1;fill-rule:nonzero;stroke:none;stroke-width:1;stroke-linecap:butt;stroke-linejoin:miter;stroke-miterlimit:4;stroke-dashoffset:0;stroke-opacity:1;marker:none;marker-start:none;marker-mid:none;marker-end:none" transform="matrix(1.97047 0 0 1.97047 -1.135 60.432)"/><path d="M8.567 3.091h6.237v5.775H8.567z" style="color:#000;display:inline;overflow:visible;visibility:visible;fill:url(#A);fill-opacity:1;fill-rule:nonzero;stroke:none;stroke-width:1;stroke-linecap:butt;stroke-linejoin:miter;stroke-miterlimit:4;stroke-dasharray:none;stroke-dashoffset:0;stroke-opacity:1;marker:none;marker-start:none;marker-mid:none;marker-end:none" transform="matrix(1.97047 0 0 1.97047 52.068 60.432)"/><path d="M17.923 5.979c0 1.593-1.397 2.887-3.119 2.887V3.09c1.722 0 3.119 1.294 3.119 2.888" style="color:#000;display:inline;overflow:visible;visibility:visible;fill:url(#B);fill-opacity:1;fill-rule:nonzero;stroke:none;stroke-width:1;stroke-linecap:butt;stroke-linejoin:miter;stroke-miterlimit:4;stroke-dashoffset:0;stroke-opacity:1;marker:none;marker-start:none;marker-mid:none;marker-end:none" transform="matrix(1.97047 0 0 1.97047 52.068 60.432)"/><path d="M5.448 5.979c0 1.593 1.397 2.887 3.119 2.887V3.09c-1.722 0-3.119 1.294-3.119 2.888" style="color:#000;display:inline;overflow:visible;visibility:visible;fill:url(#C);fill-opacity:1;fill-rule:nonzero;stroke:none;stroke-width:1;stroke-linecap:butt;stroke-linejoin:miter;stroke-miterlimit:4;stroke-dashoffset:0;stroke-opacity:1;marker:none;marker-start:none;marker-mid:none;marker-end:none" transform="matrix(1.97047 0 0 1.97047 52.068 60.432)"/><path d="M8.567 3.091h6.237v5.775H8.567z" style="color:#000;display:inline;overflow:visible;visibility:visible;fill:url(#D);fill-opacity:1;fill-rule:nonzero;stroke:none;stroke-width:1;stroke-linecap:butt;stroke-linejoin:miter;stroke-miterlimit:4;stroke-dasharray:none;stroke-dashoffset:0;stroke-opacity:1;marker:none;marker-start:none;marker-mid:none;marker-end:none" transform="matrix(1.97047 0 0 1.97047 25.466 60.432)"/><path d="M17.923 5.979c0 1.593-1.397 2.887-3.119 2.887V3.09c1.722 0 3.119 1.294 3.119 2.888" style="color:#000;display:inline;overflow:visible;visibility:visible;fill:url(#E);fill-opacity:1;fill-rule:nonzero;stroke:none;stroke-width:1;stroke-linecap:butt;stroke-linejoin:miter;stroke-miterlimit:4;stroke-dashoffset:0;stroke-opacity:1;marker:none;marker-start:none;marker-mid:none;marker-end:none" transform="matrix(1.97047 0 0 1.97047 25.466 60.432)"/><path d="M5.448 5.979c0 1.593 1.397 2.887 3.119 2.887V3.09c-1.722 0-3.119 1.294-3.119 2.888" style="color:#000;display:inline;overflow:visible;visibility:visible;fill:url(#F);fill-opacity:1;fill-rule:nonzero;stroke:none;stroke-width:1;stroke-linecap:butt;stroke-linejoin:miter;stroke-miterlimit:4;stroke-dashoffset:0;stroke-opacity:1;marker:none;marker-start:none;marker-mid:none;marker-end:none" transform="matrix(1.97047 0 0 1.97047 25.466 60.432)"/></g><g style="display:inline"><g style="display:inline"><path d="M17 5h3v3h-3z" style="color:#000;display:inline;overflow:visible;visibility:visible;fill:url(#G);fill-opacity:1;fill-rule:nonzero;stroke:none;stroke-width:1;stroke-linecap:butt;stroke-linejoin:miter;stroke-miterlimit:4;stroke-dasharray:none;stroke-dashoffset:0;stroke-opacity:1;marker:none;marker-start:none;marker-mid:none;marker-end:none" transform="matrix(4.09507 0 0 3.79117 -53.884 61.777)"/><path d="M21.5 6.5A1.5 1.5 0 0 1 20 8V5a1.5 1.5 0 0 1 1.5 1.5" style="color:#000;display:inline;overflow:visible;visibility:visible;fill:url(#H);fill-opacity:1;fill-rule:nonzero;stroke:none;stroke-width:1;stroke-linecap:butt;stroke-linejoin:miter;stroke-miterlimit:4;stroke-dashoffset:0;stroke-opacity:1;marker:none;marker-start:none;marker-mid:none;marker-end:none" transform="matrix(4.09507 0 0 3.79117 -53.884 61.777)"/><path d="M15.5 6.5A1.5 1.5 0 0 0 17 8V5a1.5 1.5 0 0 0-1.5 1.5" style="color:#000;display:inline;overflow:visible;visibility:visible;fill:url(#I);fill-opacity:1;fill-rule:nonzero;stroke:none;stroke-width:1;stroke-linecap:butt;stroke-linejoin:miter;stroke-miterlimit:4;stroke-dashoffset:0;stroke-opacity:1;marker:none;marker-start:none;marker-mid:none;marker-end:none" transform="matrix(4.09507 0 0 3.79117 -53.884 61.777)"/></g><g style="display:inline"><path d="M30 5h3v3h-3z" style="color:#000;display:inline;overflow:visible;visibility:visible;fill:url(#J);fill-opacity:1;fill-rule:nonzero;stroke:none;stroke-width:1;stroke-linecap:butt;stroke-linejoin:miter;stroke-miterlimit:4;stroke-dasharray:none;stroke-dashoffset:0;stroke-opacity:1;marker:none;marker-start:none;marker-mid:none;marker-end:none" transform="matrix(4.09507 0 0 3.79117 -53.884 61.777)"/><path d="M34.5 6.5A1.5 1.5 0 0 1 33 8V5a1.5 1.5 0 0 1 1.5 1.5" style="color:#000;display:inline;overflow:visible;visibility:visible;fill:url(#K);fill-opacity:1;fill-rule:nonzero;stroke:none;stroke-width:1;stroke-linecap:butt;stroke-linejoin:miter;stroke-miterlimit:4;stroke-dashoffset:0;stroke-opacity:1;marker:none;marker-start:none;marker-mid:none;marker-end:none" transform="matrix(4.09507 0 0 3.79117 -53.884 61.777)"/><path d="M28.5 6.5A1.5 1.5 0 0 0 30 8V5a1.5 1.5 0 0 0-1.5 1.5" style="color:#000;display:inline;overflow:visible;visibility:visible;fill:url(#L);fill-opacity:1;fill-rule:nonzero;stroke:none;stroke-width:1;stroke-linecap:butt;stroke-linejoin:miter;stroke-miterlimit:4;stroke-dashoffset:0;stroke-opacity:1;marker:none;marker-start:none;marker-mid:none;marker-end:none" transform="matrix(4.09507 0 0 3.79117 -53.884 61.777)"/></g><path d="M22.081 3.091h6.237v5.775h-6.237z" style="color:#000;display:inline;overflow:visible;visibility:visible;fill:url(#M);fill-opacity:1;fill-rule:nonzero;stroke:none;stroke-width:1;stroke-linecap:butt;stroke-linejoin:miter;stroke-miterlimit:4;stroke-dasharray:none;stroke-dashoffset:0;stroke-opacity:1;marker:none;marker-start:none;marker-mid:none;marker-end:none" transform="matrix(1.96959 0 0 1.96959 -1.141 74.645)"/><path d="M31.437 5.979c0 1.593-1.397 2.887-3.118 2.887V3.09c1.721 0 3.118 1.294 3.118 2.888" style="color:#000;display:inline;overflow:visible;visibility:visible;fill:url(#N);fill-opacity:1;fill-rule:nonzero;stroke:none;stroke-width:1;stroke-linecap:butt;stroke-linejoin:miter;stroke-miterlimit:4;stroke-dashoffset:0;stroke-opacity:1;marker:none;marker-start:none;marker-mid:none;marker-end:none" transform="matrix(1.96959 0 0 1.96959 -1.141 74.645)"/><path d="M18.963 5.979c0 1.593 1.397 2.887 3.118 2.887V3.09c-1.721 0-3.118 1.294-3.118 2.888" style="color:#000;display:inline;overflow:visible;visibility:visible;fill:url(#O);fill-opacity:1;fill-rule:nonzero;stroke:none;stroke-width:1;stroke-linecap:butt;stroke-linejoin:miter;stroke-miterlimit:4;stroke-dashoffset:0;stroke-opacity:1;marker:none;marker-start:none;marker-mid:none;marker-end:none" transform="matrix(1.96959 0 0 1.96959 -1.141 74.645)"/></g></g><path d="M16.433 4.123h17.006v12.755H16.433z" style="color:#000;display:inline;overflow:visible;visibility:visible;fill:#ececec;fill-opacity:1;fill-rule:nonzero;stroke:#b4b4b4;stroke-width:.425155;stroke-linecap:butt;stroke-linejoin:round;stroke-miterlimit:4;stroke-dasharray:none;stroke-dashoffset:0;stroke-opacity:1;marker:none;marker-start:none;marker-mid:none;marker-end:none" transform="matrix(3.55141 0 0 3.55141 -40.066 84.744)"/><g transform="matrix(3.55141 0 0 3.55141 -55.46 86.141)"><path d="M31.899 10.245c-.544.01-1.277-.097-1.614.438-.248.45-.108.986-.151 1.476l.926-.01c.002-.306-.014-.569.102-.834.163-.374 1.131-.404 1.024.243-.058.347-.3.797-.653 1.11-.463.543-1.064 1.023-1.424 1.636l.003.71c.897-.02 2.182.002 3.079-.006l-.002-.929-1.58-.009c.523-.62 1.281-1.154 1.51-1.969.117-.54.11-1.189-.263-1.624-.26-.217-.633-.238-.957-.232" style="color:#000;font-style:normal;font-variant:normal;font-weight:400;font-stretch:normal;font-size:28px;line-height:normal;font-family:Latha;text-indent:0;text-align:start;text-decoration:none;text-decoration-line:none;letter-spacing:normal;word-spacing:normal;text-transform:none;writing-mode:lr-tb;direction:ltr;text-anchor:start;display:inline;overflow:visible;visibility:visible;fill:#000;fill-opacity:1;fill-rule:nonzero;stroke:none;stroke-width:1;stroke-linecap:butt;stroke-linejoin:miter;stroke-miterlimit:4;stroke-dashoffset:0;stroke-opacity:1;marker:none;marker-start:none;marker-mid:none;marker-end:none"/><path d="M26.214 10.378V6.395l-.864.207V5.63l.9-.408.898-.022v5.178z" style="color:#000;font-style:normal;font-variant:normal;font-weight:400;font-stretch:normal;font-size:10px;line-height:normal;font-family:&quot;Lucida Sans&quot;;text-indent:0;text-align:start;text-decoration:none;text-decoration-line:none;letter-spacing:normal;word-spacing:normal;text-transform:none;writing-mode:lr-tb;direction:ltr;text-anchor:start;display:inline;overflow:visible;visibility:visible;fill:#000;fill-opacity:1;fill-rule:nonzero;stroke:none;stroke-width:1;stroke-linecap:butt;stroke-linejoin:miter;stroke-miterlimit:4;stroke-dashoffset:0;stroke-opacity:1;marker:none;marker-start:none;marker-mid:none;marker-end:none"/><rect width="1.037" height="10.734" x="29.117" y="-14.348" rx=".518" style="color:#000;display:inline;overflow:visible;visibility:visible;opacity:1;fill:#000;fill-opacity:1;fill-rule:nonzero;stroke:none;stroke-width:.5;stroke-linecap:butt;stroke-linejoin:round;stroke-miterlimit:4;stroke-dasharray:none;stroke-dashoffset:0;stroke-opacity:1;marker:none;marker-start:none;marker-mid:none;marker-end:none" transform="rotate(36.171)"/></g><path d="M16.47 18.354h16.931v10.578H16.47z" style="color:#000;display:inline;overflow:visible;visibility:visible;fill:#ececec;fill-opacity:1;fill-rule:nonzero;stroke:#b4b4b4;stroke-width:.5;stroke-linecap:butt;stroke-linejoin:round;stroke-miterlimit:4;stroke-dasharray:none;stroke-dashoffset:0;stroke-opacity:1;marker:none;marker-start:none;marker-mid:none;marker-end:none" transform="matrix(3.55141 0 0 3.55141 -40.066 84.744)"/><text xml:space="preserve" x="19.104" y="27.412" style="color:#000;font-style:normal;font-variant:normal;font-weight:700;font-stretch:normal;line-height:0%;font-family:Arial;text-indent:0;text-align:start;text-decoration:none;text-decoration-line:none;letter-spacing:normal;word-spacing:normal;text-transform:none;writing-mode:lr-tb;direction:ltr;text-anchor:start;display:inline;overflow:visible;visibility:visible;opacity:1;fill:#000;fill-opacity:1;fill-rule:nonzero;stroke:none;stroke-width:1;stroke-linecap:butt;stroke-linejoin:miter;stroke-miterlimit:4;stroke-dasharray:none;stroke-dashoffset:0;stroke-opacity:1;marker:none;marker-start:none;marker-mid:none;marker-end:none" transform="matrix(3.55141 0 0 3.55141 -40.066 84.744)"><tspan x="19.104" y="27.412" style="font-size:13.3134px;line-height:0">m</tspan></text></svg>